PathFileType	4	(X/Y/Z)	 s06c0201.trc
DataRate	CameraRate	NumFrames	NumMarkers	Units	OrigDataRate	OrigDataStartFrame	OrigNumFrames
200	200	6	49	mm	200	1	2000
Frame#	Time	racr			lacr			c7			jug			rlel			rdr			llel			ldr			s2			lic			ric			lasi			rasi			rpsi			lpsi			rgt			lgt			rth1			rth2			rth3			rth4			rlfc			rmfc			rsh1			rsh2			rsh3			rsh4			rlmal			rmmal			rcal			rtoe			rmt5			lth1			lth2			lth4			lth3			llfc			lmfc			llmal			lcal			lmt5			lsh1			lsh2			lsh3			lsh4			ltoe			SBIKE			LBIKE			RBIKE			
		X1	Y1	Z1	X2	Y2	Z2	X3	Y3	Z3	X4	Y4	Z4	X5	Y5	Z5	X6	Y6	Z6	X7	Y7	Z7	X8	Y8	Z8	X9	Y9	Z9	X10	Y10	Z10	X11	Y11	Z11	X12	Y12	Z12	X13	Y13	Z13	X14	Y14	Z14	X15	Y15	Z15	X16	Y16	Z16	X17	Y17	Z17	X18	Y18	Z18	X19	Y19	Z19	X20	Y20	Z20	X21	Y21	Z21	X22	Y22	Z22	X23	Y23	Z23	X24	Y24	Z24	X25	Y25	Z25	X26	Y26	Z26	X27	Y27	Z27	X28	Y28	Z28	X29	Y29	Z29	X30	Y30	Z30	X31	Y31	Z31	X32	Y32	Z32	X33	Y33	Z33	X34	Y34	Z34	X35	Y35	Z35	X36	Y36	Z36	X37	Y37	Z37	X38	Y38	Z38	X39	Y39	Z39	X40	Y40	Z40	X41	Y41	Z41	X42	Y42	Z42	X43	Y43	Z43	X44	Y44	Z44	X45	Y45	Z45	X46	Y46	Z46	X47	Y47	Z47	X48	Y48	Z48	X49	Y49	Z49	
1	0.0050	435.620301	1345.270080	-47.510170	458.597805	1359.880633	-376.955956	437.747888	1437.625692	-208.581115	456.028719	1267.384460	-201.579681	482.966259	1089.531370	29.700074	681.827343	944.218548	-32.603849	488.247391	1100.036283	-463.306861	677.770359	942.539737	-415.048073	-41.901421	1129.033819	-213.673483	142.470985	1104.046638	-379.371290	113.200453	1103.664416	-41.831525	156.318848	1038.186225	-348.226889	140.173371	1055.595454	-71.114765	-7.315993	1169.498401	-183.845153	-8.487289	1163.791923	-248.056752	71.540075	1048.114788	-9.438383	106.860548	1029.255939	-410.602849	176.197651	988.399588	-6.304633	265.912100	974.599891	-9.339522	333.833293	920.643947	-9.381469	277.409775	1005.540496	-29.541952	409.875336	840.803679	-31.881482	414.412045	816.317105	-142.624343	375.137708	721.320917	-9.647702	368.315880	636.455001	-31.671298	322.158352	562.932413	-37.547531	391.108350	634.037576	-63.870813	291.252890	488.288818	-44.685385	324.552791	492.759952	-136.857527	224.416047	475.166416	-95.130882	483.689094	381.726365	-103.840448	387.765410	387.753072	-31.275477	156.176052	916.645777	-420.762120	226.690572	865.814010	-411.390834	253.482160	888.204273	-397.173470	262.330342	784.387967	-403.903256	288.047253	676.489491	-375.872046	286.866091	656.587214	-260.244446	47.537690	397.127047	-380.682052	-22.518932	420.192035	-335.018042	89.334799	256.370122	-403.731596	223.472902	594.426990	-402.030269	185.863727	517.270313	-387.029902	115.182114	465.211676	-393.825765	206.082762	503.723401	-356.600647	155.530774	201.127168	-346.405918	-158.807505	854.358990	-225.691461	-48.800632	84.074411	-419.199804	-49.960716	79.454230	-21.825156	
2	0.0100	435.620871	1345.268177	-47.506699	458.619196	1359.862841	-376.949061	437.732533	1437.628456	-208.583419	455.963392	1267.431239	-201.626028	482.964592	1089.536062	29.691360	681.820596	944.220085	-32.606744	488.239469	1100.058518	-463.291629	677.770276	942.560681	-415.038688	-41.910399	1129.051778	-213.648628	142.456102	1104.060275	-379.320023	113.223605	1103.689920	-41.837659	156.318797	1038.222187	-348.228944	140.202736	1055.629656	-71.129451	-7.315120	1169.508124	-183.816868	-8.481096	1163.804165	-248.037704	71.543711	1048.114250	-9.451936	106.841536	1029.284925	-410.590051	176.218475	988.409927	-6.313695	265.902227	974.607729	-9.375710	333.857104	920.653471	-9.400965	277.415167	1005.549985	-29.553324	409.883556	840.838995	-31.923128	414.401879	816.343263	-142.655904	375.139925	721.335719	-9.676114	368.305882	636.460535	-31.710441	322.151475	562.954373	-37.563826	391.116073	634.054616	-63.881095	291.245242	488.314412	-44.689559	324.554177	492.776376	-136.878266	224.402887	475.206025	-95.148776	483.673999	381.733564	-103.859036	387.746060	387.786242	-31.263277	156.177856	916.664639	-420.762063	226.681248	865.865204	-411.398248	253.481201	888.244918	-397.165619	262.322460	784.444804	-403.908341	288.033593	676.536214	-375.873086	286.913755	656.578217	-260.243621	47.584515	397.117981	-380.698460	-22.484092	420.192110	-335.027748	89.348052	256.358704	-403.751343	223.487453	594.419345	-402.031896	185.895196	517.268287	-387.043485	115.225268	465.192398	-393.835131	206.117511	503.711853	-356.567935	155.533284	201.098171	-346.403450	-161.945108	859.106265	-222.757086	-48.794249	84.091465	-419.205094	-50.063000	79.768731	-21.594758	
3	0.0150	435.632165	1345.252038	-47.539347	458.605228	1359.863166	-376.960749	437.730208	1437.639594	-208.605083	456.032666	1267.445400	-201.628022	482.971214	1089.545411	29.697265	681.837910	944.215664	-32.603086	488.235094	1100.072006	-463.304945	677.769943	942.550954	-415.036336	-41.913466	1129.053755	-213.628844	142.441281	1104.089023	-379.288266	113.250186	1103.686249	-41.863015	156.294982	1038.249733	-348.244854	140.207049	1055.617085	-71.160703	-7.323071	1169.518011	-183.798360	-8.496407	1163.807556	-248.018082	71.552977	1048.120837	-9.464276	106.820694	1029.313400	-410.585545	176.211551	988.420448	-6.320636	265.931960	974.625444	-9.384936	333.876285	920.658744	-9.438055	277.417633	1005.563314	-29.574557	409.897544	840.849589	-31.951853	414.400836	816.380340	-142.694748	375.111976	721.365705	-9.702831	368.318596	636.491351	-31.721577	322.149673	562.985365	-37.584235	391.123629	634.082520	-63.905389	291.262702	488.331737	-44.703741	324.560229	492.799526	-136.883095	224.413918	475.232515	-95.156502	483.670147	381.760965	-103.851898	387.746718	387.805773	-31.266650	156.156165	916.712806	-420.756934	226.664077	865.906807	-411.394869	253.479177	888.288664	-397.140068	262.321862	784.482067	-403.914684	288.037250	676.569104	-375.887084	286.903174	656.604494	-260.237259	47.620331	397.096811	-380.702243	-22.427406	420.178063	-335.033387	89.368028	256.327116	-403.743265	223.509013	594.442733	-402.046958	185.927312	517.268710	-387.036452	115.270112	465.199005	-393.854944	206.140120	503.735346	-356.577365	155.536217	201.062239	-346.391948	-164.322366	864.978863	-229.351059	-48.793299	84.098394	-419.208725	-50.062401	79.778212	-21.584095	
4	0.0200	434.753208	1344.480103	-48.500087	458.542509	1359.832035	-377.372391	437.726972	1437.638695	-208.615112	455.958836	1267.412146	-201.691316	483.087646	1089.503731	29.655101	681.839583	944.220282	-32.600324	488.146208	1100.102919	-463.462858	677.877732	942.501479	-414.964307	-42.659615	1129.434183	-212.772562	142.433681	1104.105031	-379.253259	113.270044	1103.720479	-41.865317	156.273709	1038.259499	-348.200937	140.236203	1055.667548	-71.181074	-7.689379	1169.314628	-183.659113	-9.232942	1164.971117	-247.818784	71.560021	1048.135984	-9.456408	106.736030	1029.283271	-410.430128	176.762443	988.265593	-6.250545	265.929308	974.655227	-9.412027	333.806927	920.600393	-9.379904	277.221834	1005.475987	-30.046034	410.360598	840.780056	-31.779382	414.264311	816.020241	-142.060081	375.098738	721.424607	-9.735251	368.164576	636.337002	-31.942331	322.451672	562.864101	-37.508025	391.058827	633.880068	-63.864844	291.289927	488.293896	-44.674042	324.707903	492.720492	-136.971844	224.422306	475.269125	-95.160497	483.668001	381.766803	-103.860317	387.965128	387.685290	-31.345220	156.146987	916.754496	-420.752421	226.670373	865.951464	-411.382777	253.445734	888.258223	-397.037191	262.257698	784.471673	-403.904872	288.042516	676.595247	-375.885217	286.888387	656.662011	-260.228943	47.659453	397.084286	-380.701856	-22.377964	420.173750	-335.042461	89.375928	256.280098	-403.747935	223.537393	594.442087	-402.055443	185.909765	517.201120	-387.103865	114.803135	465.667508	-394.497261	205.899020	503.490986	-355.943755	155.416575	201.546222	-344.946293	-154.501970	858.939218	-217.111766	-48.785796	84.080532	-419.202191	-50.053971	79.759846	-21.599228	
5	0.0250	434.632274	1344.917110	-48.647489	458.548992	1360.044922	-377.431049	437.814110	1437.639308	-208.666755	455.877283	1268.924594	-202.081914	482.876064	1089.807672	29.825986	681.920234	944.391342	-32.278086	488.110100	1100.249729	-463.463556	677.870430	942.504484	-415.023227	-42.685894	1129.669467	-212.615471	142.457041	1103.969204	-379.386536	113.296834	1103.974245	-42.043500	156.289761	1038.278751	-348.147010	140.160945	1055.841869	-71.322595	-7.642508	1169.423782	-183.603924	-9.232480	1164.992467	-247.780428	71.496483	1048.354453	-9.384986	106.590025	1029.485155	-410.409888	176.630988	988.662539	-6.360281	265.993881	974.860737	-9.560687	333.475083	920.975498	-9.157599	277.367317	1005.427217	-30.159132	410.165285	841.305109	-31.668176	414.243598	816.127219	-142.098169	375.099854	721.696599	-9.809960	368.012705	636.666302	-31.836202	322.502195	562.931707	-37.514050	390.879724	634.206768	-63.742950	290.882645	488.808834	-44.066987	324.479562	493.221941	-137.029595	224.363517	475.338835	-95.213819	483.790266	381.882402	-104.212948	387.721869	388.013966	-31.239379	156.022572	916.835049	-420.631373	226.568213	866.206916	-411.444529	253.316222	888.565886	-397.070331	262.277604	784.544761	-404.069714	287.822598	676.838207	-375.761336	286.625319	656.890447	-260.165936	47.686625	397.152553	-380.854063	-22.282570	420.203795	-334.959167	89.380553	256.359731	-403.883804	223.344469	594.693545	-401.963026	185.727268	517.411350	-386.978267	114.754730	465.556131	-394.186554	205.939413	503.566555	-356.030666	155.373159	201.603433	-345.041228	-153.541721	858.982544	-216.359506	-48.605454	84.500057	-418.980335	-50.085200	80.042943	-21.717116	
6	0.0300	434.669710	1344.930149	-48.779204	458.534926	1360.062089	-377.465465	437.747755	1437.721383	-208.607070	455.916693	1268.612238	-202.034511	482.853215	1089.865744	29.842565	681.915231	944.399208	-32.409213	488.069946	1100.371953	-463.673247	677.879071	942.504837	-415.055866	-42.687601	1129.724679	-212.574054	142.383647	1104.267368	-379.211610	113.265129	1103.944363	-41.991919	156.297137	1038.311313	-348.182797	140.094580	1055.788506	-71.264185	-7.644490	1169.458894	-183.568512	-9.245752	1165.009149	-247.766279	71.470880	1048.413792	-9.353294	106.572254	1029.653586	-410.388692	176.508775	988.620184	-6.316709	265.814869	974.929614	-9.514971	333.455700	921.020345	-9.219069	277.301906	1005.520035	-30.142322	410.226786	841.326932	-31.666368	414.256015	816.184987	-142.130909	375.005333	721.763156	-9.753600	367.992340	636.749973	-31.858030	322.436164	563.011395	-37.514966	390.888572	634.271801	-63.748976	291.124024	488.696372	-44.427811	324.486343	493.310228	-137.040657	224.458416	475.388141	-95.175016	483.758599	381.843917	-104.139055	387.678497	388.089886	-31.225896	156.017217	917.029680	-420.611152	226.530830	866.267636	-411.408103	253.282098	888.641185	-397.070094	262.209938	784.651385	-403.975921	287.841799	676.886948	-375.927695	286.583344	656.942517	-260.146915	47.644960	397.086472	-380.807109	-22.231328	420.108896	-335.026509	89.389430	256.376583	-403.948106	223.345397	594.742973	-402.092875	185.741162	517.511311	-387.065171	114.943624	465.586165	-394.364442	205.986526	503.609685	-356.114237	155.387344	201.615597	-345.094232	-154.351631	858.755238	-217.286328	-48.705632	84.075753	-419.226833	-50.225803	80.140708	-21.622196	
